<mxfile host="app.diagrams.net" modified="2023-10-01T22:39:31.895Z" agent="Mozilla/5.0 (Windows NT 10.0; Win64; x64) AppleWebKit/537.36 (KHTML, like Gecko) Chrome/117.0.0.0 Safari/537.36" etag="iYXauF4sgH23AReJav0S" version="21.8.2" type="device">
  <diagram name="Страница — 1" id="GYarA3kAtlxYYJ5zgSWC">
    <mxGraphModel dx="1235" dy="675" grid="1" gridSize="10" guides="1" tooltips="1" connect="1" arrows="1" fold="1" page="1" pageScale="1" pageWidth="827" pageHeight="1169" math="0" shadow="0">
      <root>
        <mxCell id="0" />
        <mxCell id="1" parent="0" />
        <mxCell id="83AvB_rJKQ6btJ9zlwZ4-90" value="Спортсмен" style="shape=umlActor;verticalLabelPosition=bottom;verticalAlign=top;html=1;" vertex="1" parent="1">
          <mxGeometry x="90" y="196" width="40" height="90" as="geometry" />
        </mxCell>
        <mxCell id="83AvB_rJKQ6btJ9zlwZ4-92" value="" style="endArrow=classic;html=1;rounded=0;exitX=1;exitY=0.3333333333333333;exitDx=0;exitDy=0;exitPerimeter=0;entryX=0.017;entryY=0.473;entryDx=0;entryDy=0;entryPerimeter=0;" edge="1" parent="1" source="83AvB_rJKQ6btJ9zlwZ4-90" target="83AvB_rJKQ6btJ9zlwZ4-96">
          <mxGeometry width="50" height="50" relative="1" as="geometry">
            <mxPoint x="400" y="320" as="sourcePoint" />
            <mxPoint x="337.95000000000005" y="245" as="targetPoint" />
          </mxGeometry>
        </mxCell>
        <mxCell id="83AvB_rJKQ6btJ9zlwZ4-93" value="" style="strokeWidth=1;shadow=0;dashed=0;align=center;html=1;shape=mxgraph.mockup.rrect;rSize=10;strokeColor=#666666;" vertex="1" parent="1">
          <mxGeometry x="330" y="170" width="120" height="200" as="geometry" />
        </mxCell>
        <mxCell id="83AvB_rJKQ6btJ9zlwZ4-94" value="Вправа 1" style="strokeColor=inherit;fillColor=inherit;gradientColor=inherit;strokeWidth=1;shadow=0;dashed=0;align=center;html=1;shape=mxgraph.mockup.rrect;rSize=0;fontSize=17;fontColor=#666666;fontStyle=1;resizeWidth=1;whiteSpace=wrap;" vertex="1" parent="83AvB_rJKQ6btJ9zlwZ4-93">
          <mxGeometry width="120" height="50" relative="1" as="geometry">
            <mxPoint y="50" as="offset" />
          </mxGeometry>
        </mxCell>
        <mxCell id="83AvB_rJKQ6btJ9zlwZ4-95" value="Вправа 2" style="strokeColor=inherit;fillColor=inherit;gradientColor=inherit;strokeWidth=1;shadow=0;dashed=0;align=center;html=1;shape=mxgraph.mockup.rrect;rSize=0;fontSize=17;fontColor=#666666;fontStyle=1;resizeWidth=1;whiteSpace=wrap;" vertex="1" parent="83AvB_rJKQ6btJ9zlwZ4-93">
          <mxGeometry width="120" height="50" relative="1" as="geometry">
            <mxPoint y="100" as="offset" />
          </mxGeometry>
        </mxCell>
        <mxCell id="83AvB_rJKQ6btJ9zlwZ4-96" value="Вправа 3" style="strokeColor=inherit;fillColor=inherit;gradientColor=inherit;strokeWidth=1;shadow=0;dashed=0;align=center;html=1;shape=mxgraph.mockup.bottomButton;rSize=10;fontSize=17;fontColor=#666666;fontStyle=1;resizeWidth=1;whiteSpace=wrap;" vertex="1" parent="83AvB_rJKQ6btJ9zlwZ4-93">
          <mxGeometry y="1" width="120" height="49" relative="1" as="geometry">
            <mxPoint y="-50" as="offset" />
          </mxGeometry>
        </mxCell>
        <mxCell id="83AvB_rJKQ6btJ9zlwZ4-97" value="Доступні тренувальні вправи" style="strokeWidth=1;shadow=0;dashed=0;align=center;html=1;shape=mxgraph.mockup.topButton;rSize=10;fontSize=17;fontStyle=1;resizeWidth=1;whiteSpace=wrap;" vertex="1" parent="83AvB_rJKQ6btJ9zlwZ4-93">
          <mxGeometry width="120" height="60" relative="1" as="geometry">
            <mxPoint y="-10" as="offset" />
          </mxGeometry>
        </mxCell>
        <mxCell id="83AvB_rJKQ6btJ9zlwZ4-103" value="" style="strokeWidth=1;shadow=0;dashed=0;align=center;html=1;shape=mxgraph.mockup.forms.rrect;rSize=0;strokeColor=#999999;fillColor=#ffffff;" vertex="1" parent="1">
          <mxGeometry x="580" y="271" width="150" height="200" as="geometry" />
        </mxCell>
        <mxCell id="83AvB_rJKQ6btJ9zlwZ4-104" value="Доступні тренувальні вправи" style="strokeWidth=1;shadow=0;dashed=0;align=center;html=1;shape=mxgraph.mockup.forms.rrect;rSize=0;strokeColor=#999999;fontColor=#008cff;fontSize=17;fillColor=#ffffff;resizeWidth=1;whiteSpace=wrap;" vertex="1" parent="83AvB_rJKQ6btJ9zlwZ4-103">
          <mxGeometry width="150" height="60" relative="1" as="geometry">
            <mxPoint y="-31" as="offset" />
          </mxGeometry>
        </mxCell>
        <mxCell id="83AvB_rJKQ6btJ9zlwZ4-105" value="Вправа 1" style="strokeWidth=1;shadow=0;dashed=0;align=center;html=1;shape=mxgraph.mockup.forms.anchor;fontSize=17;fontColor=#666666;align=left;spacingLeft=5;resizeWidth=1;whiteSpace=wrap;" vertex="1" parent="83AvB_rJKQ6btJ9zlwZ4-103">
          <mxGeometry width="150" height="20" relative="1" as="geometry">
            <mxPoint y="30" as="offset" />
          </mxGeometry>
        </mxCell>
        <mxCell id="83AvB_rJKQ6btJ9zlwZ4-106" value="Вправа 2" style="strokeWidth=1;shadow=0;dashed=0;align=center;html=1;shape=mxgraph.mockup.forms.anchor;fontSize=17;fontColor=#666666;align=left;spacingLeft=5;resizeWidth=1;whiteSpace=wrap;" vertex="1" parent="83AvB_rJKQ6btJ9zlwZ4-103">
          <mxGeometry width="150" height="20" relative="1" as="geometry">
            <mxPoint y="50" as="offset" />
          </mxGeometry>
        </mxCell>
        <mxCell id="83AvB_rJKQ6btJ9zlwZ4-107" value="Вправа 3" style="strokeWidth=1;shadow=0;dashed=0;align=center;html=1;shape=mxgraph.mockup.forms.rrect;rSize=0;fontSize=17;fontColor=#666666;align=left;spacingLeft=5;fillColor=#ddeeff;strokeColor=none;resizeWidth=1;whiteSpace=wrap;" vertex="1" parent="83AvB_rJKQ6btJ9zlwZ4-103">
          <mxGeometry width="150" height="20" relative="1" as="geometry">
            <mxPoint y="70" as="offset" />
          </mxGeometry>
        </mxCell>
        <mxCell id="83AvB_rJKQ6btJ9zlwZ4-108" value="" style="strokeWidth=1;shadow=0;dashed=0;align=center;html=1;shape=mxgraph.mockup.forms.anchor;fontSize=17;fontColor=#666666;align=left;spacingLeft=5;resizeWidth=1;whiteSpace=wrap;" vertex="1" parent="83AvB_rJKQ6btJ9zlwZ4-103">
          <mxGeometry width="150" height="20" relative="1" as="geometry">
            <mxPoint y="90" as="offset" />
          </mxGeometry>
        </mxCell>
        <mxCell id="83AvB_rJKQ6btJ9zlwZ4-115" value="" style="endArrow=open;endFill=1;endSize=12;html=1;rounded=0;entryX=-0.008;entryY=0.65;entryDx=0;entryDy=0;entryPerimeter=0;exitX=1.003;exitY=0.392;exitDx=0;exitDy=0;exitPerimeter=0;" edge="1" parent="1" source="83AvB_rJKQ6btJ9zlwZ4-96" target="83AvB_rJKQ6btJ9zlwZ4-107">
          <mxGeometry width="160" relative="1" as="geometry">
            <mxPoint x="340" y="290" as="sourcePoint" />
            <mxPoint x="500" y="290" as="targetPoint" />
          </mxGeometry>
        </mxCell>
        <mxCell id="83AvB_rJKQ6btJ9zlwZ4-140" value="" style="strokeWidth=1;shadow=0;dashed=0;align=center;html=1;shape=mxgraph.mockup.forms.rrect;rSize=0;strokeColor=#999999;fillColor=#ffffff;" vertex="1" parent="1">
          <mxGeometry x="850" y="461" width="150" height="200" as="geometry" />
        </mxCell>
        <mxCell id="83AvB_rJKQ6btJ9zlwZ4-141" value="Тренувальний план" style="strokeWidth=1;shadow=0;dashed=0;align=center;html=1;shape=mxgraph.mockup.forms.rrect;rSize=0;strokeColor=#999999;fontColor=#008cff;fontSize=17;fillColor=#ffffff;resizeWidth=1;whiteSpace=wrap;" vertex="1" parent="83AvB_rJKQ6btJ9zlwZ4-140">
          <mxGeometry width="150" height="40" relative="1" as="geometry">
            <mxPoint y="-11" as="offset" />
          </mxGeometry>
        </mxCell>
        <mxCell id="83AvB_rJKQ6btJ9zlwZ4-142" value="День 1" style="strokeWidth=1;shadow=0;dashed=0;align=center;html=1;shape=mxgraph.mockup.forms.anchor;fontSize=17;fontColor=#666666;align=left;spacingLeft=5;resizeWidth=1;whiteSpace=wrap;" vertex="1" parent="83AvB_rJKQ6btJ9zlwZ4-140">
          <mxGeometry width="150" height="20" relative="1" as="geometry">
            <mxPoint y="30" as="offset" />
          </mxGeometry>
        </mxCell>
        <mxCell id="83AvB_rJKQ6btJ9zlwZ4-143" value="День 2" style="strokeWidth=1;shadow=0;dashed=0;align=center;html=1;shape=mxgraph.mockup.forms.anchor;fontSize=17;fontColor=#666666;align=left;spacingLeft=5;resizeWidth=1;whiteSpace=wrap;" vertex="1" parent="83AvB_rJKQ6btJ9zlwZ4-140">
          <mxGeometry width="150" height="20" relative="1" as="geometry">
            <mxPoint y="50" as="offset" />
          </mxGeometry>
        </mxCell>
        <mxCell id="83AvB_rJKQ6btJ9zlwZ4-144" value="&lt;p style=&quot;line-height: 90%;&quot;&gt;&lt;font style=&quot;font-size: 16px;&quot;&gt;День 3&lt;/font&gt;&lt;/p&gt;" style="strokeWidth=0;shadow=0;align=left;html=1;shape=mxgraph.mockup.forms.rrect;rSize=0;fontSize=17;align=left;spacingLeft=5;resizeWidth=1;whiteSpace=wrap;" vertex="1" parent="83AvB_rJKQ6btJ9zlwZ4-140">
          <mxGeometry width="150" height="20" relative="1" as="geometry">
            <mxPoint y="70" as="offset" />
          </mxGeometry>
        </mxCell>
        <mxCell id="83AvB_rJKQ6btJ9zlwZ4-145" value="День 4" style="strokeWidth=1;shadow=0;dashed=0;align=center;html=1;shape=mxgraph.mockup.forms.anchor;fontSize=17;fontColor=#666666;align=left;spacingLeft=5;resizeWidth=1;whiteSpace=wrap;" vertex="1" parent="83AvB_rJKQ6btJ9zlwZ4-140">
          <mxGeometry width="150" height="20" relative="1" as="geometry">
            <mxPoint y="90" as="offset" />
          </mxGeometry>
        </mxCell>
        <mxCell id="83AvB_rJKQ6btJ9zlwZ4-156" value="" style="endArrow=open;endFill=1;endSize=12;html=1;rounded=0;entryX=-0.016;entryY=0.72;entryDx=0;entryDy=0;entryPerimeter=0;exitX=1.032;exitY=0.77;exitDx=0;exitDy=0;exitPerimeter=0;" edge="1" parent="1" source="83AvB_rJKQ6btJ9zlwZ4-107" target="83AvB_rJKQ6btJ9zlwZ4-141">
          <mxGeometry width="160" relative="1" as="geometry">
            <mxPoint x="450" y="500" as="sourcePoint" />
            <mxPoint x="579" y="515" as="targetPoint" />
          </mxGeometry>
        </mxCell>
        <mxCell id="83AvB_rJKQ6btJ9zlwZ4-158" value="Есперт" style="verticalLabelPosition=bottom;shadow=0;dashed=0;align=center;html=1;verticalAlign=top;strokeWidth=1;shape=mxgraph.mockup.containers.userFemale;strokeColor=#666666;strokeColor2=#008cff;" vertex="1" parent="1">
          <mxGeometry x="230" y="930" width="100" height="100" as="geometry" />
        </mxCell>
        <mxCell id="83AvB_rJKQ6btJ9zlwZ4-163" value="" style="strokeWidth=1;shadow=0;dashed=0;align=center;html=1;shape=mxgraph.mockup.containers.browserWindow;rSize=0;strokeColor=#666666;strokeColor2=#008cff;strokeColor3=#c4c4c4;mainText=,;recursiveResize=0;" vertex="1" parent="1">
          <mxGeometry x="140" y="460" width="360" height="330" as="geometry" />
        </mxCell>
        <mxCell id="83AvB_rJKQ6btJ9zlwZ4-164" value="Page 1" style="strokeWidth=1;shadow=0;dashed=0;align=center;html=1;shape=mxgraph.mockup.containers.anchor;fontSize=17;fontColor=#666666;align=left;whiteSpace=wrap;" vertex="1" parent="83AvB_rJKQ6btJ9zlwZ4-163">
          <mxGeometry x="60" y="12" width="110" height="26" as="geometry" />
        </mxCell>
        <mxCell id="83AvB_rJKQ6btJ9zlwZ4-165" value="https://www.draw.io" style="strokeWidth=1;shadow=0;dashed=0;align=center;html=1;shape=mxgraph.mockup.containers.anchor;rSize=0;fontSize=17;fontColor=#666666;align=left;" vertex="1" parent="83AvB_rJKQ6btJ9zlwZ4-163">
          <mxGeometry x="130" y="60" width="250" height="26" as="geometry" />
        </mxCell>
        <mxCell id="83AvB_rJKQ6btJ9zlwZ4-159" value="Reply massage" style="strokeWidth=1;shadow=0;dashed=0;align=center;html=1;shape=mxgraph.mockup.containers.rrect;rSize=0;strokeColor=#666666;fontColor=#666666;fontSize=17;verticalAlign=top;whiteSpace=wrap;fillColor=#ffffff;spacingTop=32;" vertex="1" parent="83AvB_rJKQ6btJ9zlwZ4-163">
          <mxGeometry x="50" y="140" width="250" height="160" as="geometry" />
        </mxCell>
        <mxCell id="83AvB_rJKQ6btJ9zlwZ4-160" value="Message&amp;nbsp;" style="strokeWidth=1;shadow=0;dashed=0;align=center;html=1;shape=mxgraph.mockup.containers.rrect;rSize=0;fontSize=17;fontColor=#666666;strokeColor=#666666;align=left;spacingLeft=8;fillColor=#ffffff;resizeWidth=1;whiteSpace=wrap;" vertex="1" parent="83AvB_rJKQ6btJ9zlwZ4-159">
          <mxGeometry width="250" height="30" relative="1" as="geometry" />
        </mxCell>
        <mxCell id="83AvB_rJKQ6btJ9zlwZ4-161" value="" style="shape=ellipse;strokeColor=#008cff;resizable=0;fillColor=none;html=1;" vertex="1" parent="83AvB_rJKQ6btJ9zlwZ4-160">
          <mxGeometry x="1" y="0.5" width="20" height="20" relative="1" as="geometry">
            <mxPoint x="-25" y="-10" as="offset" />
          </mxGeometry>
        </mxCell>
        <mxCell id="83AvB_rJKQ6btJ9zlwZ4-162" value="OK" style="strokeWidth=1;shadow=0;dashed=0;align=center;html=1;shape=mxgraph.mockup.containers.rrect;rSize=0;fontSize=16;fontColor=#666666;strokeColor=#c4c4c4;resizable=0;whiteSpace=wrap;fillColor=#ffffff;" vertex="1" parent="83AvB_rJKQ6btJ9zlwZ4-159">
          <mxGeometry x="0.5" y="1" width="120" height="25" relative="1" as="geometry">
            <mxPoint x="-60" y="-33" as="offset" />
          </mxGeometry>
        </mxCell>
        <mxCell id="83AvB_rJKQ6btJ9zlwZ4-167" value="" style="endArrow=open;endFill=1;endSize=12;html=1;rounded=0;entryX=0.997;entryY=0.328;entryDx=0;entryDy=0;entryPerimeter=0;exitX=-0.032;exitY=0.88;exitDx=0;exitDy=0;exitPerimeter=0;" edge="1" parent="1" source="83AvB_rJKQ6btJ9zlwZ4-141" target="83AvB_rJKQ6btJ9zlwZ4-163">
          <mxGeometry width="160" relative="1" as="geometry">
            <mxPoint x="745" y="366" as="sourcePoint" />
            <mxPoint x="858" y="489" as="targetPoint" />
          </mxGeometry>
        </mxCell>
        <mxCell id="83AvB_rJKQ6btJ9zlwZ4-168" value="" style="endArrow=open;endFill=1;endSize=12;html=1;rounded=0;entryX=0.474;entryY=1.01;entryDx=0;entryDy=0;entryPerimeter=0;exitX=0.656;exitY=-0.016;exitDx=0;exitDy=0;exitPerimeter=0;" edge="1" parent="1" source="83AvB_rJKQ6btJ9zlwZ4-158" target="83AvB_rJKQ6btJ9zlwZ4-163">
          <mxGeometry width="160" relative="1" as="geometry">
            <mxPoint x="666" y="850" as="sourcePoint" />
            <mxPoint x="320" y="933" as="targetPoint" />
          </mxGeometry>
        </mxCell>
      </root>
    </mxGraphModel>
  </diagram>
</mxfile>
